<?xml version="1.0" encoding="UTF-8"?>
<svg id="Layer_1" data-name="Layer 1" xmlns="http://www.w3.org/2000/svg" viewBox="0 0 2498.81 717">
  <defs>
    <style>
      .cls-1 {
        fill: #a0a8b0;
        stroke-width: 0px;
      }
    </style>
  </defs>
  <path class="cls-1" d="m2196.93,716.83c-49.47-3.26-87.94-18.61-118.27-47.2-12.34-11.63-25.37-29.19-32.91-44.4-1.27-2.58-2.48-4.68-2.7-4.68-.2,0-3.35,1.85-7,4.11-8.03,5-32.28,18.92-42.57,24.45-67.53,36.32-137.04,57.79-207.22,64-22.45,2-48.81,2.35-64.95.85-35.91-3.32-65.08-13.58-88.67-31.21-5.9-4.41-19.93-18.08-24.43-23.83-4.52-5.86-8.7-11.98-12.49-18.34l-2.52-4.38-7.61,6.55c-41.7,35.91-84.98,58.36-127.85,66.31-20.67,3.84-42.8,4.27-58.28,1.11-21.54-4.37-37.18-15.56-46.08-32.97-10.23-19.99-12.69-47.16-7.8-86.19,2.92-23.34,5.44-35.83,15.76-78.5,5.51-22.7,10.33-49.04,12.09-66.02,1.05-10.07,1.05-24.83.02-31.7-2.29-15.2-7.93-23.98-17.99-28.03-3.57-1.45-12.66-1.74-17.18-.57-18.69,4.85-40.37,27.58-64.78,67.92-33.68,55.65-52.15,107.9-57.17,161.59-1.05,11.23-.89,42.89.25,53.15,1.3,11.61,3.73,23.2,6.57,31.41,1.33,3.83,2.57,7.43,2.74,8,.32,1-.14,1.01-16.8.7-18.55-.34-30.24-1.25-43.01-3.37-46.22-7.64-72.4-26.18-83.81-59.38-6.88-20.01-8.78-41.61-6.49-73.72,1.58-22.12,4.71-40.38,11.51-67.11,6.29-24.72,9.33-40.26,11.33-57.97,1.12-9.96,1.28-28.56.28-33.52-3.27-16.22-10.86-24.88-24.32-27.74-2.73-.58-5.74-.76-9.84-.6-4.97.19-6.57.48-10.04,1.85-17.46,6.88-36.11,29.66-55.7,68.08-21.8,42.73-35.32,88.27-40.02,134.73-2.54,25.15-2.52,60.97.05,84.56,1.38,12.65,4.22,26.31,6.98,33.5.38,1,0,1.01-14.59.68-21.84-.48-36.09-2.21-52.03-6.26-23.61-6-42.64-16.65-55.74-31.19-8.9-9.88-16.58-24.56-21.04-40.21-.47-1.79-1.02-3.56-1.65-5.31-.11-.12-2.43,1.82-5.17,4.32-39.24,35.77-74.83,58.22-112.61,71.03-20.88,7.08-43.73,11.02-63.93,11.02-29.79,0-51.15-10.32-65.05-31.4-5.54-8.4-8.61-15.5-11.4-26.34-5.38-20.87-4.41-46.36,3.3-85.86,5.06-25.93,10.23-46.85,22.21-89.91,8.61-30.96,14.52-52.71,18.12-66.84,2.84-11.13,3.01-12.16,2.97-17.98-.15-19.04-7.85-30.09-21.09-30.28-3.71-.05-4.36.12-8.36,2.18-5.92,3.04-10.61,6.07-22.09,14.28l-9.78,7-1.44,4.35c-7.98,24.12-25.5,59.21-45.71,91.57-22.27,35.65-56.28,82.31-85.48,117.31-57.17,68.49-106.23,105.67-149.51,113.29-8.08,1.43-20.11,1.35-26.18-.18-26.82-6.69-49.08-33.81-68.39-83.31-1.63-4.19-9.76-33.49-25.22-91-8.24-30.8-16.56-61.57-24.96-92.33-7.78-27.1-18.01-51.96-26.93-65.43-6.86-10.36-15.45-17.11-22.74-17.84-2.95-.3-3.43-.15-8.01,2.13-4.79,2.41-18.61,11.3-30.45,19.58-3.31,2.31-6.3,4.37-6.65,4.57-.42.23-5.12-5.47-13.1-15.88-4.37-5.73-8.77-11.43-13.19-17.12-.65-.76.36-1.85,8.8-9.4,19.1-17.14,38.1-34.39,57.03-51.72,25.91-23.81,40.93-36.04,58.27-47.42,18.53-12.17,30.26-16.81,44.02-17.41,34.61-1.53,57.6,19.23,70.06,63.25,2.98,10.52,4.32,17.54,8.87,46.13,11.84,74.6,16.85,101.49,24.67,132.55,9.3,36.95,19.63,58.51,30.63,63.93,2.96,1.46,3.87,1.65,6.54,1.46,12.04-.92,29.25-19.71,52.85-57.72,19.45-31.34,31.24-56.57,35.42-75.88,1.05-4.82,1.22-7.23,1.25-17.15.02-9.6-.15-12.13-.95-15.03-2.75-9.82-7.9-16.38-15.93-20.33-6.5-3.2-10.86-4.02-21.21-4.02-12.11,0-22.74,2-34.84,6.57-3.4,1.28-5.48,1.82-5.57,1.45-.08-.32,1.18-4.5,2.79-9.26,9.72-28.62,21.12-50.74,36.05-69.94,5.41-6.96,16.12-17.97,22.44-23.09,10.56-8.55,24.64-16.6,37.01-21.17,27.09-10.01,63.89-11.73,87.33-4.07,31.86,10.41,48.69,37.11,52.36,83.08l.35,4.43,2.52-2.28c1.38-1.26,10.84-9.94,21.01-19.3,41.86-38.52,66.22-55.92,86.67-61.91,3.95-1.15,6.36-1.46,13.2-1.72,25.58-.94,43.31,7.24,55.55,25.63,11.15,16.76,16.2,38.53,14.7,63.48-.42,7.15-1.24,11.99-5.85,35.07-8.56,42.83-17.31,92.24-26.91,151.87-3.18,19.84-3.27,20.61-2.96,27.71.77,17.84,4.54,28.88,12.64,37.03,3.04,3.06,5.04,4.55,8.07,6,7.18,3.41,17.47,4.59,24.45,2.77,4.04-1.05,12.42-5.03,19.04-9.06,11.97-7.28,37.9-27.19,38.34-29.45.13-.66.99-7.11,1.92-14.34.92-7.23,4.07-27.4,6.97-44.83,5.6-33.59,8.47-53.51,10.17-70.6,1.38-13.83,2.38-30.96,2.05-35.08-.75-9.4-6.84-14.4-14.5-11.91-5.33,1.74-16.5,8.57-32,19.61-6.4,4.56-7.83,5.37-8.4,4.75-3.18-3.37-29.25-33.41-29.22-33.67.03-.18,1.42-1.52,3.09-2.98,4.65-4.04,28.2-25.99,56.46-52.64,34.55-32.58,44.86-41.73,59.2-52.53,10.88-8.17,19.31-13.12,26.47-15.48,3.14-1.04,4.78-1.22,10.69-1.18,4.21.02,8.47.37,10.73.88,14.89,3.31,26.57,11.77,36.24,26.23,9.96,14.92,16.05,30.72,18.88,49.02,1.54,9.96,1.68,29.42.28,37.47-.5,2.88-.92,5.52-.92,5.87s1.64-1.75,3.63-4.69c13.82-20.36,33.21-40.56,54.81-57.07,6.05-4.63,19.96-13.87,26.11-17.36,30.65-17.38,64.66-27.1,98.51-28.17,31.52-.99,55.2,6.6,71.4,22.89,6.1,6.14,11.09,13.28,14.78,21.11,7.28,15.19,10.71,31.6,11.45,54.74l.35,11.12,9.4-8.27c6.04-5.31,11.5-10.72,15.3-15.14,7.3-8.51,21.51-23.13,30.06-30.94,34.38-31.43,70.72-49.33,110.32-54.34,9.53-1.21,25.71-1.61,33.81-.84,23.4,2.23,41.4,9.96,53.97,23.22,19.35,20.38,27.39,47.63,25.47,86.27-1.38,27.71-5.63,53.55-17.24,104.76-14.58,64.34-16.72,77.89-15,95.43,1.35,13.9,4.25,19.94,11.39,23.76,5.26,2.78,9.83,3.79,18.97,4.12,7.72.28,8.23.23,12.35-1.15,5.05-1.69,12.01-5.26,18.94-9.72,4.02-2.58,4.92-3.38,4.73-4.27-.85-3.56-1.51-22.45-1.21-34.09.92-37.62,9.03-70.16,26.13-104.95,11.66-23.73,25.57-44.92,44.07-67.11,54.07-64.82,118.56-104.86,191.05-118.61,29.62-5.61,64.47-7.06,90.19-3.75,48.81,6.28,79.33,27.39,92.93,64.26,4.44,12.03,6.89,25.39,7.3,39.87.45,15.22-.97,24.97-5.73,39.42-10.61,32.22-34.69,64.26-73.77,98.16-45.88,39.8-102.44,67.58-166.75,81.85-8.8,1.95-25.1,5.2-26.15,5.2-.65,0,5.44,7.02,9.23,10.66,12.15,11.69,27.17,18.39,45.92,20.53,7.18.8,33.32.34,45.63-.82,51.54-4.88,102.06-18.7,161.42-44.15l12.09-5.18-.32-3c-1.65-15.62-1.69-37.87-.08-53.47,4.22-41.12,18.35-79.78,42.54-116.48,9.76-14.83,18.5-26.05,32.38-41.61,29.69-33.28,57.88-55.51,92.56-73.04,39.52-19.96,81.22-29.96,129.11-30.93,20.37-.42,34.21.66,50.44,3.94,22.91,4.64,44,13.92,61.66,27.13,10.63,7.97,23.85,22.05,33.64,35.87,23.6,33.29,35.29,77.03,33.92,126.96-1.25,45.55-10.36,86.2-27.99,124.85-15.76,34.6-41.65,70.32-70.51,97.29-44.56,41.67-95.47,64.7-156.88,70.98-7.92.83-38.96,1.48-46.39,1h0Zm38.11-107.61c32.33-3.92,60.88-26.34,85.27-66.97,24.97-41.6,37.33-85.96,36.16-129.72-.48-17.76-2.68-30.99-7.6-45.71-4.47-13.42-9.04-21.53-15.17-27.01-6.5-5.8-12.42-7.35-24.81-6.46-14.05,1-26.42,4.27-38.41,10.15-22.8,11.16-41.66,30.01-59.32,59.24-22.87,37.88-34.92,75.94-37.61,118.77-1.44,22.91,2.07,41.95,11.02,59.86,6.26,12.51,14.38,21.4,23.17,25.32,6.6,2.95,16.35,3.85,27.29,2.54h0Zm-499.03-94.23c49.75-19.88,94.71-55.08,121.27-94.93,8.27-12.42,13.5-24.19,15.15-34.11.79-4.71.4-13.61-.81-18.65-.95-4.02-3.41-9.05-5.65-11.6-2.24-2.54-6.31-5.07-10.33-6.38-4.01-1.33-15.32-1.6-20.54-.49-22.2,4.7-44.06,21.68-66.05,51.36-23.89,32.22-36.94,62.62-39.96,93.06-.78,7.84-.74,24.23.07,24.23.34,0,3.41-1.11,6.84-2.48h0ZM670.79,156.72c-12.32-1.11-24.83-4.61-32.91-9.2-4.46-2.54-11.36-8.68-14.38-12.78-4.33-5.91-7.5-13.99-9.11-23.31-1.26-7.24-1.12-21.02.28-27.89,2.86-14.03,10.47-27.24,23.44-40.67,24.2-25.07,52.85-39.52,84.08-42.4,19.2-1.77,33.08,1.41,44.83,10.26,11.11,8.37,21.2,22.76,25.1,35.79,1.91,6.39,2.37,17.39,1.05,25.18-3.06,18.05-13.12,35.18-30.78,52.38-18.74,18.25-38.75,28.38-62.93,31.85-7.07,1.01-21.68,1.41-28.68.79Z"/>
</svg>