<?xml version="1.0" encoding="UTF-8"?>
<svg id="Layer_1" data-name="Layer 1" xmlns="http://www.w3.org/2000/svg" viewBox="0 0 2499.11 314">
  <defs>
    <style>
      .cls-1 {
        fill: #a0a8b0;
        stroke-width: 0px;
      }
    </style>
  </defs>
  <path class="cls-1" d="m194.3,94.8c0,31.62-17.48,57.83-55.12,57.83h-38.32V35.65h38.32c37.65,0,55.12,26.89,55.12,59.15m-93.45,115.65v-32.94h38.32c69.25,0,107.57-36.32,107.57-82.72S208.43,11.44,139.18,11.44H0v13.45c45.04,0,53.11,10.76,53.11,77.97v107.59c0,67.23-8.07,78.66-53.11,78.66v13.44h153.96v-13.44c-45.04,0-53.11-11.43-53.11-78.66m273.82-4.04h110.27l13.44,30.92c16.81,39.67,12.1,51.1-36.32,51.1v14.12h150.61v-14.12c-35.63,0-43.69-8.06-65.88-58.49L447.96,0h-9.41l-98.83,229.95c-22.19,50.43-28.24,58.49-69.26,58.49v14.12h127.08v-14.12c-53.11,0-53.11-11.43-36.32-51.1l13.45-30.92h0Zm99.51-24.86h-88.74l44.38-102.87,44.36,102.87h0Zm237.3-78.68v107.58c0,67.24-8.06,78.66-53.12,78.66v13.45h131.11v-13.45c-45.05,0-53.12-11.43-53.12-78.66V78.68l195.66,234.63h12.77V102.87c0-67.22,8.07-77.98,53.11-77.98v-13.45h-131.09v13.45c45.04,0,53.1,10.76,53.1,77.98v121.02L741.07,11.44h-82.71v13.45c45.06,0,53.12,10.76,53.12,77.98m598.56,53.79c0,53.79-17.47,121.02-106.22,121.02h-5.37c-33.62,0-38.34-7.39-38.34-51.1V35.66h43.71c88.75,0,106.22,67.9,106.22,121m-250.78,145.9h142.54c114.3,0,164.05-65.9,164.05-145.9s-49.75-145.22-164.05-145.22h-142.54v13.45c45.06,0,53.13,10.76,53.13,77.98v107.58c0,67.23-8.08,78.67-53.13,78.67v13.45h0Zm705.41-145.9C1764.68,71.28,1690.73,0,1600.64,0s-164.07,71.28-164.07,156.66,73.97,157.34,164.07,157.34,164.04-70.61,164.04-157.34m-55.15,0c0,58.49-29.56,131.12-108.89,131.12s-108.92-72.63-108.92-131.12,29.58-131.11,108.92-131.11,108.89,73.3,108.89,131.11m311.64-61.86c0,31.62-17.47,57.83-55.13,57.83h-38.33V35.65h38.33c37.66,0,55.13,26.89,55.13,59.15m-28.9,81.37c50.42-6.72,81.35-40.35,81.35-81.37,0-47.73-38.32-83.35-107.57-83.35h-139.19v13.45c45.07,0,53.11,10.76,53.11,77.97v107.59c0,67.23-8.05,78.66-53.11,78.66v13.44h153.97v-13.44c-45.05,0-53.12-11.43-53.12-78.66v-32.94h18.82l91.46,125.04h86.06v-13.44c-32.27-4.7-63.22-30.92-90.09-62.53l-41.7-50.42h0Zm268.84,30.25h110.27l13.42,30.92c16.81,39.67,12.12,51.1-36.3,51.1v14.12h150.6v-14.12c-35.62,0-43.7-8.06-65.9-58.49L2334.41,0h-9.43l-98.83,229.95c-22.2,50.43-28.23,58.49-69.23,58.49v14.12h127.06v-14.12c-53.11,0-53.11-11.43-36.32-51.1l13.45-30.92h0Zm99.52-24.86h-88.76l44.39-102.87,44.37,102.87h0Z"/>
</svg>