<?xml version="1.0" encoding="UTF-8"?>
<svg id="Layer_1" data-name="Layer 1" xmlns="http://www.w3.org/2000/svg" viewBox="0 0 800 797.6">
  <defs>
    <style>
      .cls-1 {
        fill: #a0a8b0;
        stroke-width: 0px;
      }
    </style>
  </defs>
  <path class="cls-1" d="m387.6,0h24.8c120.63,6.8,206.64,52.61,270.4,116.8,63.77,64.19,110.9,148.86,117.2,270v24c-6.12,123.08-54.09,204.31-117.2,270.4-66.29,62.78-147.79,110.35-270.8,116.4h-24.4c-120.61-6.82-206.64-52.6-270.4-116.8C53.43,616.6,6.3,531.94,0,410.8v-24c.31-.09.47-.33.4-.8,6.03-120.68,53.42-206.22,116.8-269.6C180.87,52.73,267.77,6.6,387.6,0Zm-78.4,57.2c-23.77,6.36-45.08,14.45-64.4,24-58.8,29.08-107.29,70.68-141.2,124-33.09,52.05-61.75,119-57.6,206.8,2.62,55.35,15.25,101.91,35.2,141.6,39.4,78.37,99.39,136.11,182.4,171.2,41.05,17.35,91.92,29.53,149.2,26.8,54.94-2.62,102.55-14.97,142-34.8,77.31-38.87,138.23-98.85,172-181.6,17.08-41.86,29.99-90.22,27.2-148.8-5.28-110.97-50.43-186.22-110-243.6-29.48-28.39-64.97-52.54-106.8-70-40.58-16.94-93.42-29.49-150-26.8-27.82,1.32-54.06,4.79-78.01,11.2h0Z"/>
  <path class="cls-1" d="m363.2,295.2c12.67,8.39,25.64,16.5,37.6,25.6-27.03,16.97-53.52,34.48-80.4,51.6,4.08,3.12,8.72,5.68,12.8,8.8,27.1-17.17,54.21-34.33,81.2-51.6,12.11,7.49,24.03,15.17,35.2,23.6-27.05,17.08-53.19,35.07-80,52.4,3.97,3.23,8.84,5.56,13.2,8.4,27.71-16.96,54.73-34.61,82-52v-56.8h60v113.2c16.93.93,35.6.13,53.2.4v53.2h-113.2v-54c-33.26,20.21-67.34,43.06-100.8,64.4-34.84-22.62-68.42-46.52-103.2-69.2-10.08,31.94-34.01,55.96-73.6,58.8-24.69,1.77-52.76-1.32-81.2,0v-166.8c35.56,2.36,74.61-4.76,102.8,4,24.93,7.74,42.6,27.63,50.8,52.4,34.81-21.86,69.05-44.28,103.6-66.4h0Zm-200,63.6v60c14.29.07,25.16.9,33.6-5.6,12.55-9.67,15.08-33.63,4-46.4-7.39-8.52-19.88-10.31-37.2-9.2-.46.07-.43.63-.4,1.2Zm430.4-53.6h60v113.6h52.8v53.2h-113.2v-165.6c-.03-.57-.06-1.13.4-1.2h0Z"/>
</svg>