<?xml version="1.0" encoding="UTF-8"?>
<svg id="Layer_1" data-name="Layer 1" xmlns="http://www.w3.org/2000/svg" viewBox="0 0 2278.76 2279.41">
  <defs>
    <style>
      .cls-1 {
        fill: #a0a8b0;
      }

      .cls-1, .cls-2 {
        fill-rule: evenodd;
        stroke-width: 0px;
      }

      .cls-2 {
        fill: #fff;
      }
    </style>
  </defs>
  <path class="cls-1" d="m1139.38,0C510.55,0,0,510.72,0,1139.71s510.55,1139.71,1139.38,1139.71,1139.38-510.71,1139.38-1139.71S1768.19,0,1139.38,0h0Z"/>
  <path class="cls-2" d="m1139.38,24.46c615.6,0,1114.86,499.44,1114.86,1115.24s-499.26,1115.24-1114.86,1115.24S24.51,1755.51,24.51,1139.71,523.78,24.46,1139.38,24.46Z"/>
  <path class="cls-1" d="m1138.72,308.14c-459,0-831.23,372.39-831.23,831.57s372.23,831.57,831.23,831.57,831.25-372.4,831.25-831.57-372.25-831.57-831.25-831.57h0Z"/>
  <path class="cls-2" d="m1138.72,326.76c448.81,0,812.67,364.04,812.67,812.94s-363.87,812.96-812.67,812.96-812.67-364.05-812.67-812.96,363.87-812.94,812.67-812.94h0Z"/>
  <path class="cls-1" d="m664.53,1270.97l27.72,84.25c22.23,67.92,34.2,92.95,58.71,133.16,41.3,67.42,80.88,136.44,134.13,195.71,55.95,62.54,117.87,120.63,186.31,169.59l57.62,35.34,50-33.16c123.87-82.07,206.43-192.45,315.63-344.05,6.54-8.77,7.04-13.63,19.61-31.05,12.46-17.42,28.22-45.08,28.75-46.17,50.56-96.22,56.51-125.55,80.98-192.45,8.64-22.28,16.32-61.97,21.71-85.34,6.51-28.81,8.69-89.69,8.69-128.28v-436.48H623.24l.57,439.8c-.57,29.32,5.45,58.08,9.74,86.95,7.67,51.09,17.41,102.12,30.98,152.17Z"/>
  <path class="cls-2" d="m1167.28,977.92c0,2.18-20.62,30.98-40.74,34.77l-467.77.57c-15.29,0-15.29-20.17-15.29-24.98v-148.96c0-23.37,26.63-21.71,10.88-21.71h472.18c1.61,0,10.88,1.09,10.88-6.54v-194.61l10.83-2.75,42.89,64.67c-4.28,14.15-15.76,26.63-19.53,41.35-1.14,4.34,1.62,9.79,3.77,14.15,2.76,4.93,12.49,5.95,15.2,4.29,8.77-6.54,18.49-16.26,25.03-27.72l32.07,25.02c1.6.57-34.2,32.07-39.12,86.95-1.09,10.36-11.98,27.78-18.52,24.51-15.17-7.61,9.3-40.21-1.09-62.54-2.68-6.54-13.58-6.54-19-2.18-6.54,6.02-2.68,15.24-3.22,22.35l.53,173.35Zm17.06,44.97l437.94,1.09c10.89,0,17.41,5.95-4.94,21.7l-61.9,49.49c.53,0-16.82-15.17-24.45-19.01-11.98-6.52-17.41-7.61-29.9-4.93-4.31.57-7.63,6.02-8.13,10.36-1.62,10.36,9.78,18.49,17.91,20.1,6.54,1.09,21.76,12.49,21.76,12.49l-31.04,29.9s-10.26-1.61-14.09-5.38c-3.77-3.84-23.89-25.55-26.12-26.12-15.76-6.54-30.93-11.4-53.73-15.24-.53,0-47.83,2.75-51.67-4.86-4.86-9.81,37.55-18.51,48.91-19.53,13.07-1.14,20.12-.57,28.25-1.14,22.35-2.7,19.58-14.15,13.07-14.15h-9.22l-254.83.57c-12.49,0-14.67-6.52-27.66-15.23-3.32-2.18-14.72-13.58-13.05-17.42,16.26-2.68,26.63-5.9,42.89-2.68h0Z"/>
  <path class="cls-1" d="m666.19,1028.46l434.44.69c8.53,0,18.16,4.64,18.16,14.2v161.06c0,8.37-4.64,18.14-14.03,18.14l-424.01-1.21c-9.05,0-12.83-7.38-12.83-17.64l-24.68-156.42c-.01-10.06,14.19-18.83,22.96-18.83Zm-3.29-416.77h437.7c8.53,0,18.14,4.64,18.14,14.2v161.06c0,8.37-4.46,18.16-14.09,18.16h-441.76c-9.1,0-19.7-4.46-19.7-14.94v-165.13c0-10.08,10.93-13.35,19.7-13.35Z"/>
  <path class="cls-2" d="m1424.22,978.58c7.04-.52,20.12-2.7,20.12,5.43,0,6.54-4.36,6.54-8.13,8.13l-236.4-.51h-15.17c-7.09-1.61-2.18-7.63,4.36-13.06l426.99-337.51c10.36-7.68,15.76-4.93,15.76,7.04l.56,347.89c0,6.52,1.67,15.17-3.77,15.17-4.92,0-8.13-3.26-12.54-4.86l-65.12-36.43c-10.87,11.4-25.54,20.69-41.35,19.6-5.95-.52-14.16-2.18-13.58-9.27,1.09-15.17,40.21-33.16,40.71-32.59l-28.22-35.34c-2.71-3.26-6.54-.52-9.75,0-13.05,1.61-19.58,14.67-30.98,20.1-33.75,15.75-77.13,20.67-105.38,15.75-3.85-1.09-10.36,3.84-6.03,7.68,18.2,17.21,43.05,25.55,67.95,22.79h0Zm-688.15,445.98c-31.57-69.6-50.53-143.54-54.36-160.94-4.34-17.35,11.47-21.71,26.64-21.71h395.55c5.43,0,12.48-2.7,16.83,1.09,5.95,5.45,3.26,14.09,4.34,21.76v171.76c.52,16.85-7.04,13.06-10.36,15.19h-339.54c-28.75,0-30.98-9.22-39.12-27.15h0Zm764.59,5.24l13.58,14.67c2.18,4.93-1.6,7.04-5.45,17.41,0,1.61-8.13,10.89-14.09,19.6-56.51,84.25-182.59,251.08-287.38,333.22-6.54,5.43-33.19,28.24-41.32,34.19-7.09,4.93-22.79,16.33-30.4,17.42-8.18,1.66-5.43-23.94-6.02-28.81,0-1.09.57-2.7.57-3.79l44.51-45.12c4.92-5.97-7.63-20.62-13.07-22.87-5.9-2.17-11.91-8.7-11.91-21.18,0-4.36,6-7.63,9.81-10.38,8.64-4.81,18.49,11.97,22.77,17.99,4.36,5.95,8.72,20.62,11.4,18.51l41.32-37.57c0-4.29-5.45-6.47-7.57-9.74-25.03-34.25-35.34-72.79-20.09-120.68,5.42-16.83,1.01-20.1-13.66,0-14.64,20.12-13.55,46.79-20.62,70.69-6,19.53-17.35,24.46-17.35,18.49l1.09-14.66v-584.38c.53-23.96,25.49-11.97,30.43-6.54l313.45,343.53h0Z"/>
  <path class="cls-1" d="m786.5,1463.74h313.87c8.53,0,18.16,4.63,18.16,14.2v161.06c0,8.53-4.46,18.16-13.92,18.16h-201.77c-19.88,0-19.71-2.24-27.56-10.49-29.16-29.96-104.52-149.89-113.76-177.59-2.56-6.87,16.29-5.33,24.98-5.33h0Z"/>
  <path class="cls-1" d="m252.37,1741.1c13.42,20.22,27.52,39.99,42.27,59.27l5.5-4.18c-1.54-2.06-3.15-4.06-4.75-6.24-8.08-10.65-6.87-21.13,1.26-26.86l90.45-65.52c-24.54,44.17-46.35,89.81-65.3,136.66,1.04,1.26,2.13,2.63,3.22,3.89,49.37-10.48,98.06-23.91,145.82-40.22l-79.96,76.94c-7.51,7.38-17.87,5.84-24.16-.29-2.7-2.87-5.45-5.84-8.13-8.7l-5.11,4.75c20.71,22.68,42.38,44.46,64.95,65.29l4.76-5.1c-2.28-2.12-4.57-4.22-6.87-6.3-8.08-7.61-9.34-18.33-2.41-25.37l88.21-90.72c7.38-6.81,16.67-6.47,22.68-.8,2.13,1.93,4.12,3.89,6.24,5.77l4.76-5.15c-12.1-11.18-23.9-22.67-35.39-34.47-44.95,16.43-90.83,30.2-137.4,41.24,18.3-44.12,39.13-87.14,62.37-128.87-9.96-13.39-19.54-27.06-28.7-41.01l-5.67,3.72c1.27,2.11,2.7,4.18,4.07,6.24,5.94,8.65,4.29,18.26-3.1,23.42l-103.27,72.58c-9.79,6.12-19.3,2.87-24.23-3.85-2.26-3.2-4.45-6.44-6.59-9.73l-5.51,3.61h0Zm227.78-1199.28c16.99-19.13,34.8-37.52,53.38-55.1l-4.64-4.93c-1.64,1.51-3.22,3.07-4.75,4.7-8.13,7.67-17.64,7.5-24.98.17l-39.86-39.87c2.87-2.93,5.72-5.78,8.65-8.59,34.42,3.84,68.16,9.51,100.8,16.9,12.25-10.42,24.78-20.5,37.57-30.25l-4.18-5.43c-14.27,9.74-22.06,10.71-32.93,8.08-26.03-6.19-52.3-11.3-78.75-15.29,6.94-8.84,11.7-19.18,13.92-30.19,2.28-13.35.05-24.58-8.42-34.82-7.56-9.22-20.96-15.07-35.97-13.63-11.97,1.21-25.49,5.68-46.51,25.43-11.28,10.7-21.08,22.85-31.79,34.02-10.69,10.93-21.12,22.13-31.27,33.57l5.38,4.7c1.67-1.89,3.22-3.61,4.93-5.43,8.7-9.79,19.47-10.88,26.29-4.47,30.82,28.82,61.75,57.68,92.5,86.48,6.47,6.13,6.99,16.5,0,24.34-1.61,1.65-3.15,3.37-4.7,5.1,1.82,1.61,3.53,3.03,5.3,4.53h0Zm1458.33,1313.25c20.24-22.99,39.42-46.89,57.51-71.61l-5.5-4.06c-1.54,2.11-3.09,4.23-4.68,6.29-7.9,10.65-18.16,12.55-26.29,6.13l-44.43-34.54c2.45-3.2,5.02-6.59,7.5-9.79,35.43-1.61,70.74-5.15,105.78-10.58,10.52-16.06,20.61-32.41,30.25-49.03l-6.08-3.54c-11,17.17-18.9,21.7-30.48,23.59-27.2,4.32-54.56,7.51-82.02,9.56,5.16-10.53,7.04-22.5,5.85-32.66-1.72-13.23-7.39-22.97-18.66-30.18-10.13-6.41-24.29-8.13-37.29-4.06-10.26,3.03-20.67,9.4-34.88,28.75-7.68,10.49-14.16,21.71-22.29,31.79-8,10.01-16.23,19.85-24.67,29.49l5.37,4.75c1.44-1.61,2.89-3.2,4.25-4.81,7.17-8.25,16.9-9.16,23.99-3.32,32.61,26.98,65.12,53.84,97.65,80.76,6.89,5.67,7.34,16.83-.86,26.34-1.7,2.13-3.5,4.11-5.32,6.19,1.82,1.49,3.61,3.03,5.3,4.53h0ZM372.13,692.24c12.73-22.22,26.38-43.91,40.89-65.02l-5.55-3.79c-1.26,1.89-2.53,3.62-3.72,5.5-6.42,9.34-15.75,11.1-24.4,5.43l-47.25-30.76c2.23-3.37,4.53-6.76,6.71-10.25,33.94-3.28,68.03-4.7,102.12-4.24,9.82-12.73,20-25.19,30.53-37.34l-5.21-4.59c-11.97,12.43-19.42,15.01-30.58,14.72-26.78-.65-53.57-.13-80.3,1.54,5.21-10.48,7.79-22.27,7.33-32.48-.34-13.63-4.81-24.23-15.29-32.48-9.29-7.38-23.66-10.36-37.92-5.84-11.45,3.61-23.83,10.95-40.37,34.59-8.77,12.71-15.81,26.63-24.05,39.69-8.09,12.96-15.96,26.06-23.6,39.29l6.25,3.67c1.19-2.23,2.45-4.34,3.72-6.47,6.47-11.28,16.77-14.6,24.73-9.79,36.08,21.93,72.22,43.71,108.36,65.59,7.63,4.63,10.31,14.55,5.05,23.66-1.09,2.06-2.28,3.94-3.49,6.07,2.09,1.12,4.09,2.2,6.04,3.29h0ZM1023.81,251.73c20.18-2.73,40.45-4.81,60.76-6.24l-.34-6.64c-2.23.17-4.36.29-6.47.47-11.69.8-18.73-5.33-19.53-14.49l-10.6-110.89c46.8,39,89.57,82.6,127.66,130.14,1.95.05,3.9.05,5.95.17l6.13-149.54c.35-10.31,8.48-16.45,21.31-15.69l8.26.51.45-6.76c-24.32-1.7-48.69-2.54-73.07-2.52v6.93h7.77c13.53.18,20.97,7.16,20.7,17.3l-2.71,99.94c-37.34-43.54-78.57-83.59-123.19-119.65-15.51,1.38-30.98,3.15-46.39,5.33l.91,6.87c8.03-.97,16.1,1.48,22.23,6.76,2.74,2.3,5.49,4.76,8.37,7.11l13.51,124.29c.75,11.05-5.38,17.81-15.01,19.13-2.52.29-5.05.62-7.56.91l.84,6.56h0Zm-395.5,157c20.78-14.8,42.18-28.72,64.15-41.7l-3.44-5.84c-2.18,1.31-4.19,2.45-6.3,3.77-8.94,5.27-18.22,3.09-23.02-4.7-9.05-14.32-18.05-28.69-27.16-42.96,1.04-28.92,3.27-58.08,6.76-87.46,3.44-23.94,12.26-31.91,23.77-36.72l-3.09-5.95c-20.68,10.67-41.05,21.96-61.06,33.84l3.49,5.85c2.18-1.37,4.59-2.7,6.87-4.07,7.56-4.46,12.31-2.63,14.27.86,1.54,2.63,1.66,5.68,1.21,9.86-2.6,24.71-4.3,49.51-5.1,74.34-22.84-9.8-46.03-18.76-69.53-26.86-3.44-1.26-6.71-1.54-9.29-5.21-2.45-3.5-1.48-7.85,4.18-11.74,3.61-2.46,7.29-4.98,10.95-7.39l-3.89-5.84c-25.75,17.34-50.74,35.78-74.91,55.26l4.18,5.15c12.14-10.26,22.57-13.35,41.35-7.39,28.6,8.73,56.81,18.71,84.54,29.91l27.73,41.18c5.67,8.48,3.15,18.73-3.32,23.25-2.41,1.66-4.81,3.44-7.16,5.1,1.21,1.83,2.53,3.61,3.84,5.45h0Zm141.76-263.07c2.7-1.14,5.45-2.17,8.25-3.22,11.28-4.11,20.86,0,23.59,7.96l29.39,84.13c7.56,20.62,16.73,29.96,25.89,35.63,12.54,7.79,32.46,11.8,59.34,4.59,20.8-5.5,34.94-14.6,43.31-23.83,10.76-11.8,17.24-27.03,12.02-55.45l-15.68-85.56c-1.56-8.08,5.89-16.96,16.15-18.73,3.32-.52,6.59-1.04,9.91-1.49l-1.21-6.99c-24.11,3.82-48.08,8.44-71.88,13.85l1.43,6.65c3.32-.75,6.52-1.49,9.74-2.13,10.41-2.3,19.64,3.03,21.31,11.35,5.85,28.97,11.79,58.08,17.64,87.05,3.72,18.78.4,30.53-5.05,38.71-5.84,9.17-18.38,18.78-34.64,22.97-15.46,4.02-30.82.86-42.1-7.73-7.09-5.38-12.48-11.85-17.76-28.4l-26.06-83.33c-3.15-9.84,3.2-19.01,11.45-21.48,3.74-1.04,7.39-2.13,11.06-3.22l-1.83-6.48c-29.36,8.35-58.35,17.97-86.88,28.82.83,2.01,1.75,4.12,2.61,6.3h0Zm856.96,1953.1c47.13-24.36,92.38-52.22,135.35-83.33-4.54-16.1-9.3-32.07-14.16-47.94l-6.41,3.32c3.96,23.02,2.28,28.3.35,33.97-3.16,9.68-9.47,18.26-22.24,26.7-10.95,7.28-22.04,14.37-33.25,21.24-7.17,4.34-12.39,3.15-15.65-2.23-21.76-36.9-43.51-73.82-65.41-110.77-4.86-9.16-2.45-17.92,6.41-23.42,2.02-1.22,3.96-2.41,6.03-3.72l-3.85-5.85c-21.61,13.66-43.8,26.39-66.5,38.14l3.22,6.02c1.83-.92,3.54-1.84,5.5-2.87,10.13-5.28,19.43-2.18,23.58,5.32,20.28,36.77,40.63,73.42,60.89,110.14,5.14,10.6.45,19.99-7.85,24.46-3.09,1.66-6.23,3.27-9.27,4.86,1.13,1.96,2.13,3.96,3.27,5.95h0Zm-130.59-1782.54c41.96,18.07,82.46,39.37,121.14,63.69,11.72-9.69,23.58-19.07,35.56-28.42-1.44-1.54-2.92-3.09-4.31-4.68-7.83,4.11-16.37,9.91-24.27,11.45-9.75,2.13-20.52.4-30.43-5.27-13.05-7.59-26.3-14.83-39.74-21.71-3.45-1.71-4.68-5.5-3.27-8.25l30.53-60.71c14.44,7.23,28.68,14.83,42.74,22.79,11.05,6.19,13.35,16.45,8.99,23.83l-5.5,9.17c2.05,1.21,4.18,2.58,6.36,3.84l33.57-55.67c-2.25-1.34-4.49-2.69-6.72-4.06l-4.45,7.48c-5.72,9.62-16.08,11.91-26.65,5.95-14.1-8.07-28.42-15.75-42.94-23.02l30.48-60.54c15.51,7.77,30.81,15.97,45.87,24.58,21.87,12.43,27.08,27.09,18.55,45.54,2.23,1.36,4.41,2.8,6.72,4.18,5.95-11.74,11.78-23.37,17.76-35.06-45.18-28.22-92.44-52.96-141.37-74.01l-2.63,6.13,11.48,4.98c8.69,3.9,12.59,11.85,9.04,19.47l-55.33,119.14c-3.5,7.73-12.09,10.6-18.62,7.68-3.45-1.54-6.76-2.98-10.13-4.41-.82,1.95-1.54,3.94-2.41,5.9h0Zm-100.59-36.48c2.18.62,4.36,1.26,6.59,2.06,33.6-40.66,69.68-79.2,108.04-115.4,15.91-15.29,27.72-14.27,37.34-8.92l2.68-6.36c-19.4-8.02-39.03-15.47-58.87-22.35l-2.23,6.48c1.32.47,2.5.92,3.77,1.37,11,3.84,13.58,9.68,11.62,14.77-.69,1.76-1.81,3.32-3.27,4.53-28.67,27.29-56.07,55.88-82.12,85.68-4.31-38.52-10.37-76.82-18.16-114.78-1.04-4.18-1.09-5.68-.64-7.68,1.36-5.33,6.19-8.42,15.76-6.41,3.09.8,6.19,1.66,9.33,2.45l1.78-6.41c-27.68-7.61-55.65-14.12-83.85-19.53l-1.19,6.59c12.36,1.71,22.04,9.1,25.3,22.74,12.8,53.07,22.19,106.9,28.12,161.16h0Zm536.51,441.18c11.95,22.75,22.86,46.02,32.7,69.75l6.25-2.58c-.8-2.13-1.78-4.31-2.68-6.42-4.36-10.25-.64-18.73,6.11-22.4,42.74-19.13,85.47-38.43,128.21-57.74,3.96,8.6,7.6,17.25,11.27,25.89,8.48,20.39,4.36,35.12-15.98,43.94.91,2.4,1.89,4.92,2.81,7.26,12.89-5.9,25.76-11.79,38.65-17.81-19.95-53.48-44.2-105.25-72.5-154.82-12.89,6.02-25.71,12.15-38.51,18.27l4.03,6.94c19.45-9.4,33.57-3.27,44.6,18.04,3.83,7.51,7.68,15.01,11.35,22.57l-123.16,60.08c-9.49,4.7-18.09,1.66-22.22-4.76-1.57-3.11-3.21-6.18-4.92-9.22-2,.95-3.94,1.98-6.02,3.01h0Zm-287.4-323.14c21.15,14.45,41.69,29.77,61.55,45.94l4.31-5.15-5.21-4.18c-8.72-7.04-9.86-16.67-3.5-24.8l34.37-44.73c3.19,2.58,6.46,5.15,9.73,7.61.56,34.09-.75,68.18-3.9,102.12,11.93,10.88,23.55,22,34.88,33.4l4.89-4.81c-11.48-12.94-13.53-20.51-12.2-31.62,2.68-26.34,4.28-53.1,4.76-80.24,10.08,5.9,21.58,9.56,31.84,9.91,13.63.69,24.5-2.98,33.67-12.66,8.03-8.65,12.14-22.8,8.72-37.4-2.58-11.75-8.94-24.69-31.23-42.9-11.96-9.91-25.23-17.92-37.66-27.26-12.23-9.12-24.64-17.98-37.24-26.58l-4.12,5.84c2,1.43,4.12,2.8,6.13,4.24,10.76,7.44,13.29,17.87,7.81,25.43l-74.02,102.86c-5.14,7.28-15.28,9.16-23.99,3.15-1.83-1.26-3.83-2.58-5.68-3.89-1.25,1.88-2.56,3.77-3.88,5.72h0Zm471.88,1174.06c6.7-15.71,13.03-31.58,18.97-47.59,2.23-6.02,4.97-11.8,7.37-17.82,2.08-5.27,4.18-10.58,6.08-16.03,15.23-46.44,11.27-76.81,2.98-96.34-9.81-23.07-29.92-39.8-55.63-45.02-30.65-6.13-56.87,2.92-77.39,21.08-13.5,11.97-25.54,28.87-36.7,63.05-3.77,11.4-7.28,23.77-7.57,24.23-1.3,4.54-2.74,9.05-4.46,13.53-4.14,10.98-8.53,21.87-13.18,32.64l6.48,2.81,3.03-7.04c3.54-8.53,13.23-12.55,21-9.57l117.36,46.56c7.81,3.4,9.52,6.6,10.53,11.53.64,3.66.13,8.82-1.65,13.18-1.22,2.68-2.31,5.32-3.4,8.13,2.04.91,4.06,1.76,6.16,2.67h0Z"/>
  <path class="cls-2" d="m942.15,1722.19l-18.51-21.71c-4.81-7.09-30.41-26.12,12.54-27.78h161.91c13.58,0,19.55,1.66,17.35,15.24v144.61c-.1,8.75-3.62,17.11-9.79,23.31-14.66-5.38-27.15-15.75-39.64-24.91-44.62-32.27-86.1-68.68-123.87-108.75Z"/>
  <path class="cls-1" d="m75.55,1157.02c.12,24.28,1.02,48.44,2.74,72.68l6.82-.45-.52-7.79c-.92-13.35,5.9-21.36,15.81-21.71l111.62-4.99c-44.78,23.41-88.1,49.52-129.72,78.18.23,1.67.4,3.32.57,4.98,46.99,18.46,95.08,33.98,143.99,46.46l-109.17,20.56c-10.26,1.95-18.11-5.05-20-13.68-.62-3.85-1.36-7.81-2.06-11.62l-6.82.96c4.79,30.39,10.95,60.55,18.44,90.39l6.71-1.73c-.76-2.98-1.47-5.98-2.13-8.99-2.63-10.76,2.13-20.27,11.8-22.4l123.42-27.31c10.03-1.78,17.54,3.61,19.47,11.8.64,2.7,1.26,5.43,2.01,8.13l6.86-1.66c-4.01-15.99-7.56-32.09-10.65-48.29-46.6-10.92-92.5-24.62-137.47-41.01,39.55-26.8,80.63-51.28,123.03-73.31-1.04-16.68-1.56-33.4-1.56-50.12h-6.81c0,2.46,0,4.88.12,7.38.12,10.54-6.48,17.64-15.52,17.94l-126.18,3.84c-11.58-.23-17.7-8.31-18.16-16.55-.12-3.89-.23-7.85-.23-11.8l-6.41.12h0Zm70.79,377.78c7.57,19.57,15.65,38.93,24.23,58.08l6.12-2.75c-.64-1.54-1.37-3.22-2-4.75-5.05-11.17-2.18-15.82,1.95-17.59.91-.39,2.45-.97,7.78-.62,12.32.62,24.69,1.02,36.82,1.26,9.6,21.15,19.92,41.97,30.93,62.42-7.38,10.13-14.72,20.39-21.93,30.82-1.49,2.18-2.57,3.09-3.96,3.84-4.29,2.52-11,.8-14.72-6.08-1.74-3.14-3.44-6.3-5.1-9.49l-6.36,3.39c13.5,25.35,28.02,50.15,43.51,74.33l5.78-3.72c-7.83-12.19-7.95-22.5-2.11-31.5,30.02-46.69,63.03-91.4,98.8-133.85-1.04-2-2.18-4.02-3.22-6.13-54.54,3.59-109.26,3.69-163.81.29-15.36-1.21-21.76-8.13-24.46-14.89-.62-1.87-1.35-3.71-2.18-5.5l-6.1,2.46Zm148.63-664.74c5.24-16.78,10.95-33.42,17.12-49.88l-6.24-2.35c-.57,1.43-1.08,2.8-1.71,4.18-3.49,9.62-8.42,10.71-12.66,9.17-1.02-.35-2.52-1.02-6.29-4.41-8.82-8.3-17.64-16.72-26.34-25.25,7.68-20.39,16.03-40.52,25.03-60.36,12.43.12,24.75.4,37.17.74,2.52.18,3.89.57,5.5,1.32,4.41,2.13,7.16,7.85,4.41,13.8-1.26,2.8-2.58,5.56-3.79,8.25l6.42,2.87c9.84-21.88,20.57-43.35,32.14-64.37l-5.9-3.27c-5.9,10.88-13.98,15.01-24.51,14.27-55.53-4.02-111.26-4.41-166.84-1.15l-3.39,7.74c35.78,41.7,74.19,81.07,115,117.87,10.95,10.26,11.87,18.33,10.08,24.05-.57,1.66-1.02,3.22-1.49,4.76l6.29,2.04h0Zm1491.45-352.4c1.62,1.54,3.22,3.2,4.76,4.86l.91-.64c2.08-1.37,6.3-1.37,9.27,1.72.3.34.53.74.77,1.09.32.34.64.74.96,1.08,3.57,5.05,4.76,11,7.39,16.21,5.72,11.45,7.04,13.18,9.96,16.6,20.34,23.94,51.96,27.09,70.45,13.46,22.24-16.43,19.25-42.15,15.94-62.09-2.34-13.56-4.99-27.06-7.95-40.49-3.57-16.67-.35-24.98,5.6-30.41,10.95-10.03,27.74-8.37,41.54,7.79,16.26,19.01,17.22,46.44-6.08,65.58,1.72,2.01,3.32,4.06,4.86,6.13l42.45-32.54c-1.85-2.4-3.62-4.75-5.45-7.03-4.07,2.01-7.9.52-10.49-2.63-2.13-2.7-2.31-4.34-3.03-5.95-3.54-7.9-6.72-20.67-18.26-34.14-21.26-24.51-50.63-27.61-70.11-8.6-9.91,9.45-14.41,23.89-9.68,45.99,2.92,12.89,5.4,25.77,7.63,38.48,4.76,26.98-1.54,37.05-8.99,43.14-12.89,10.13-29.74,8.65-41.97-5.78-13.24-15.58-15.84-36.89,1.06-60.37,1.62-2.11,3.22-4.29,4.76-6.47-1.65-1.78-3.27-3.44-4.92-5.21-13.83,13.36-27.59,26.87-41.39,40.22h0Zm212.5,369.37c7.02,24.56,12.99,49.4,17.91,74.46l6.72-1.26c-.45-2.41-.91-4.88-1.54-7.22-2-10.13,3.19-18.11,12.14-20.16,16.56-3.72,33.06-7.51,49.49-11.23,27.23,10.67,54,22.5,80.23,35.45,21.43,11.17,25.97,22.23,26.7,34.66l6.59-.91c-3.05-23.1-6.93-46.08-11.62-68.9l-6.54,1.37c.45,2.63,1.04,5.21,1.49,7.85,1.67,8.47-1.6,12.48-5.5,13.23-3.14.57-5.9-.47-9.73-2.23-22.44-10.66-45.24-20.55-68.35-29.67,16.8-18.3,32.96-37.17,48.46-56.59,2.41-2.75,3.54-5.84,7.95-7.04,4.12-1.19,7.85,1.21,9.7,7.79,1.14,4.34,2.23,8.65,3.37,12.89l6.76-1.66c-7.77-30.06-16.83-59.78-27.16-89.06l-6.3,2.28c5.68,14.72,5.05,25.6-6.74,41.41-17.8,24.01-36.61,47.27-56.37,69.7l-48,12.43c-9.96,2.45-18.66-3.22-20.84-10.83-.86-2.8-1.54-5.62-2.41-8.48-2.13.64-4.31,1.21-6.41,1.73h0Zm67.47,787.29c15.03-26.78,28.88-54.2,41.52-82.19l-6.11-2.75c-1.39,3.03-2.89,6.13-4.25,9.17-5.32,11.39-13.45,14.42-21.08,10.7l-118.5-57.61c-6.59-3.15-9.22-11.35-6-18.26,1.49-3.27,3.09-6.54,4.51-9.74l-6.36-2.93c-10.55,23.39-22.13,46.3-34.71,68.67l5.95,3.2c1.67-2.8,3.22-5.84,4.94-8.75,3.96-7.44,12.09-9.97,19.08-6.3l115.11,60.54c8.94,4.63,10.44,13.63,6.54,20.96-2.13,4.01-4.36,8.02-6.54,11.97l5.9,3.32h0ZM263.35,1013.89c3.8-27.63,8.87-55.07,15.17-82.24,5.11-22.28,2.93-36.37-2.28-46.91-5.62-11.39-15.81-20.62-28.18-24.4-18.91-5.85-39.86,2.57-51.14,25.3-1.54-20.67-12.89-36.2-28.52-40.95-21.43-6.47-52.13,8.13-63.91,60.83-2.52,11.34-3.79,23.02-5.62,34.53-.8,5.45-1.43,10.71-2.28,15.94-1.89,11.62-3.67,23.13-5.27,34.76l6.93.97c.45-3.61,1.02-7.09,1.54-10.65,1.26-8.7,9.97-16.67,19.01-15.17l124.29,20.22c10.48,1.71,15.93,10.14,14.79,18.56-.47,2.75-.86,5.45-1.27,8.2,2.33.38,4.51.66,6.74,1.01h0Zm1603.13-400.01c14.98,20.83,29.05,42.31,42.15,64.37l5.72-3.32c-1.41-2.52-2.97-4.93-4.33-7.38-5.58-9.05-3.35-16.73,3.83-21.19l111.33-70.5c6.3-3.96,15.07-1.09,19.83,6.59,2.1,3.67,4.36,7.28,6.46,10.88l6.08-3.49c-15.7-26.28-32.47-51.91-50.28-76.81l-5.45,3.96c2.31,3.26,4.59,6.47,6.94,9.86,5.6,8.12,4.51,17.46-1.95,21.76l-107.64,72.92c-8.46,5.68-16.45,3.55-20.49-2.06-2.23-3.09-4.49-6.29-6.76-9.39l-5.45,3.81h0ZM112.79,1432.45c8,29.65,17.31,58.93,27.9,87.75l6.41-2.31c-1.26-3.2-2.35-6.41-3.49-9.61-4.24-11.74-.52-19.65,7.51-22.35l124.86-41.97c7.04-2.36,14.6,1.61,17.12,8.82,1.21,3.39,2.41,6.76,3.72,10.13l6.42-2.35c-8.75-24.09-16.53-48.53-23.31-73.25l-6.47,1.73c.8,3.27,1.71,6.47,2.7,9.81,2.28,8.12-1.71,15.51-9.27,17.86l-124.52,37.52c-9.56,2.93-17.02-2.45-19.3-10.43-1.32-4.36-2.46-8.75-3.79-13.06l-6.48,1.71h0Z"/>
  <path class="cls-2" d="m991.05,762.99h-170.05c-10.82,0-10.3,8.12,1.61,8.12h168.45c9.73,0,8.7-8.12-.01-8.12Z"/>
  <path class="cls-1" d="m1860.53,1938.34c21.02-19.35,31.1-39.69,33.28-62.25,2.41-23.25-6.67-49.19-28.65-68.95-19.75-17.64-44.2-25.32-66.21-24.86-20.67.64-42.76,9.68-58.18,23.77-16.59,15.36-27.53,40.49-27.13,66.38.27,17.35,7.04,39.22,19.69,55.95,15.07,19.65,36.55,31.5,55.73,33.73,25.38,3.2,52.92-6.47,71.48-23.77h0Z"/>
  <path class="cls-2" d="m1050.12,1614.89l-161.91-.52c-11.92,0-13.58,9.22,1.14,9.22l160.77-.57c14.66,0,13.05-8.13,0-8.13Z"/>
  <path class="cls-1" d="m2179.79,1371.33c4.18-20.51,7.95-41.3,11-62.02l-6.59-.92-.86,5.15c-1.83,12.09-6.76,14.37-11.05,13.63-1.09-.17-2.63-.51-6.99-3.59-10-7.21-20.12-14.26-30.35-21.14,3.5-22.97,6.06-46.11,7.9-69.25,11.77-4.49,23.48-9.15,35.11-13.98,2.45-.91,3.83-1.21,5.37-1.09,5.05.35,9.68,5.27,9.17,13.06-.27,3.67-.64,7.17-.91,10.78l7.15.57c2.41-28.59,3.62-57.34,3.72-85.98h-6.86c-.13,14.44-5.68,23.14-15.36,27.61-50.49,23.02-102.44,42.69-155.51,58.88-.16,2.35-.45,4.68-.64,6.99,47.82,26.5,93.86,56.1,137.83,88.6,12.26,9.34,13.9,18.56,12.49,25.65-.4,1.89-.77,3.79-1.17,5.73l6.54,1.31h0Z"/>
  <path class="cls-2" d="m979.89,1183.69h-165.7c-6.52,0-9.79,8.13,0,8.13h165.7c6.52,0,11.45-8.13,0-8.13Z"/>
  <path class="cls-1" d="m434.84,1950.78c22.99,20.38,46.86,39.73,71.54,58.01l4.01-5.5-8.13-6c-9.97-7.63-11.23-16.21-5.95-22.92l81.22-103.67c4.53-5.77,12.94-6.71,19.08-2.13,2.92,2.19,5.78,4.42,8.65,6.54l4.19-5.62c-20.6-15.26-40.54-31.4-59.74-48.39l-4.53,5.15c2.58,2.18,5.1,4.47,7.67,6.59,6.37,5.56,7.06,13.97,2.06,19.99l-83.45,99.89c-6.42,7.67-15.46,7.21-21.76,1.89-3.54-2.93-6.93-5.84-10.41-8.83l-4.44,4.99h0Zm1024.87,217.24c29.04-9.16,57.67-19.6,85.79-31.28l-2.56-6.29c-3.67,1.49-7.22,2.97-10.89,4.47-9.62,3.77-17.99.8-21.26-7.79l-22.54-59.28c14.37-5.5,28.61-11.33,42.71-17.47,13.23-5.84,23.31-2.45,28.35,8.26l3.4,7.21c2.28-1.14,4.59-2.28,6.91-3.37l-27.82-58.7c-2.19.98-4.35,2.01-6.48,3.09l2.97,6.42c5.16,11.15,1.27,21.3-12.7,27.43-13.56,5.91-27.26,11.48-41.09,16.72l-24.08-62.99c14.82-5.64,29.47-11.71,43.93-18.21,16.54-7.33,29.39-4.64,41.01,13.33,2.05-.97,4.23-2,6.28-3.09-6.69-11.06-13.27-22.23-19.86-33.33-40.09,19.7-81.62,36.34-124.22,49.78l2.05,6.41c2.31-.75,4.63-1.43,6.94-2.18,11.32-3.71,17.81.06,19.86,6.15l43.42,125.55c2.76,9.49-1.83,15.91-11.45,19.13-3.59,1.21-7.31,2.35-11.08,3.54.87,2.09,1.63,4.38,2.41,6.51Z"/>
  <path class="cls-2" d="m2128.47,1509.37l-140.72-50.7c.45-7.09,1.78-13.5,4.51-22.04,14.27-43.01,48.87-65.81,96.87-54.93,46.96,10.71,67.53,53.16,51.43,102.24-2.41,7.37-6.37,15.9-12.09,25.42h0Z"/>
  <path class="cls-1" d="m810.51,2168.08c66.44,21.31,123.2-19.53,133.51-74.45,10.14-51.2-12.37-76.81-35.06-82.99-13.75-3.66-27.21-1.36-40.26,7.51-12.12,8.19-21.1,20.24-25.49,34.19-10.93,32.36,6.47,57.46,32.02,64.27,10.36,2.93,22.57,2.75,35.16-2.01-11.23,21.71-25.15,34.32-42.05,42.28-18.56,9.22-36.89,10.25-55.61,4.86-.74,2.05-1.48,4.23-2.23,6.34h0Z"/>
  <path class="cls-2" d="m1854.07,1929.3c-13.76,11.58-28.14,15.3-43.03,11.8-12.7-2.81-33.49-14.62-50.44-35.29-16.51-20.05-24.02-42.39-25.03-53.95-1.22-15.58,3.77-27.88,13.63-37.11,11.4-10.49,24.45-14.55,41.97-10.76,12.26,2.68,31.84,11.74,50.18,29.49,16.9,16.26,26.34,34.64,28.91,47.2,4.03,17.92-1.6,34.41-16.19,48.62Z"/>
  <path class="cls-1" d="m944.35,2156.05c25.49,4.98,51.32,8.98,77.09,11.97-1.56,14.09-3.09,28.17-4.59,42.2,8.13,1.04,16.38,1.84,24.63,2.58l3.96-42.27c8.4.75,16.83,1.48,25.3,2l1.21-18.73c-8.23-.57-16.46-1.22-24.68-1.95l10.31-111.73c-4.46-.34-8.88-.86-13.28-1.32-29.77,35.53-62.04,68.89-96.56,99.83l-3.39,17.42h0Zm212.16,64.25c43.88-2.92,63.1-49.43,59.32-91.53-2.74-32.93-16.45-58.64-27.53-70.61-12.57-13.01-24.98-17.42-34.37-17.18-7.04.05-15.12,2.35-23.14,7.83-15.76,11.17-34.77,38.14-36.89,78.58-2.87,50.98,23.14,92.8,62.61,92.9Zm-441.02-90.88c23.31,10.15,46.98,19.45,70.96,27.88l2.24-6.36c-3.39-1.27-6.87-2.52-10.26-3.72-6.76-2.41-11.45-10.6-9.1-16.6l55.73-147.26c-15.05.8-30.12,1.22-45.19,1.26v6.42c4.86.57,6.07.57,8.99,1.78,4.86,1.95,7.16,6.07,4.29,13.23l-46.86,115.25c-2.57,6.47-11.05,9.22-18.73,6-3.09-1.26-6.24-2.74-9.45-4.11l-2.62,6.23h0ZM1222.21,246.92c25.54,2.23,50.97,5.57,76.22,10.03l1.22-6.59c-2.86-.43-5.7-.93-8.53-1.49-10.44-1.71-14.89-8.37-13.63-16.73l19.25-130.41c1.14-7.28,9.22-12.14,17.96-10.76,4.25.8,8.38,1.43,12.57,2.18l1.19-6.87c-30.13-5.27-60.47-9.27-90.94-11.97l-.53,6.81c3.96.34,7.85.69,11.8,1.09,10.03.97,16.39,7.85,15.41,15.81l-14.86,129.04c-1.27,10.14-8.16,14.72-15.07,14.2-3.81-.39-7.63-.74-11.45-1.04l-.6,6.72h0Z"/>
  <path class="cls-2" d="m794.15,1148.58c-1.09,4.34-2.7,14.15.52,16.89,6,4.82,15.23-.62,22.28-2.23,7.04-1.6,39.7-11.96,64.15,1.61.52,0,8.13,0,8.13-13.06v-76.05c-7.04-6.52-11.4-9.79-20.1-9.79-14.09,0-36.37,4.93-36.37,4.93-4.92,2.13-21.19,4.34-21.76,6.52l-16.85,71.19h0Zm27.56-486.35l-15.17,58.7-3.84,12.49c-2.7,10.31,4.86,11.97,9.27,11.45,4.29-.52,36.37-14.71,55.95-8.18,4.81,1.66,14.66,3.84,18.38,4.34,7.11,1.09,11.45-2.7,11.45-10.36v-80.93l-13.06-3.79c-11.97-2.23-26.63-.64-35.28,6.52-6.54,4.81-11.45,4.81-16.83,7.04l-10.87,2.71h0Zm65.3,851.59l-21.19,70.67c.57,3.77-.52,9.22,3.27,10.83,3.77,1.66,6.47,2.75,9.79,4.34,3.2,1.66,44.51-8.65,52.68-7.56,8.7,1.1,13.51,1.61,21.76,4.88,4.81-2.18,8.13-8.2,8.13-13.58v-76.63c-4.93-5.45-22.8-9.22-28.24-6.54-24.5,12.49-43.51,5.45-46.21,13.58h0Zm109.62-361.31l-22.28-73.37c-1.04-3.27-11.97-4.34-38.03-10.36-23.37-5.95-33.16,3.32-33.16,7.09v77.14c0,8.2.57,12.55,7.04,10.38,18.51-6.54,43.53-9.29,66.33,0,3.84,0,13.06,4.29,16.26,2.68,2.23-1.09,4.34-3.84,4.34-6.52l-.51-7.04h0Zm-18.72-495.52l-11.97-2.7c-8.65-3.84-15.75-14.2-36.37-7.68l-16.9,4.41v79.84c1.14,2.23,1.14,13.06,10.36,10.36,9.22-3.26,22.8-8.13,32.59-6.52,15.23,1.66,27.73,11.45,42.39,13.06,9.22-3.83,8.13-7.04,5.45-16.9l-25.55-73.88h0Zm.99,849.93v76.63c0,11.4,4.93,14.67,12.49,14.15,8.7-.52,20.1-2.75,28.24-3.27,16.33-1.66,30.41,8.2,47.31,5.97,1.08-2.7,4.29-5.97,4.29-8.65l-17.86-72.35c-4.92-20.1-8.13-2.11-45.65-17.92-4.93-2.17-24.47,1.09-28.82,5.45h0ZM452.76,440.28l-51.49-51.66c3.5-6.06,7.84-11.6,12.89-16.45,16.83-16.1,40.09-17.59,55.26-.29,8.02,9.05,10.26,18.11,8.6,28.4-1.49,9.74-8.08,23.02-21.08,35.91-1.37,1.26-2.81,2.7-4.19,4.07h0Zm1289.4-82.66l44.54-57.91c6.72,2.93,12.44,6.42,18.07,10.89,18.09,14.66,22.57,37.52,7.39,54.81-7.98,9.12-16.74,12.54-27.11,12.15-9.96-.34-23.84-5.05-38.33-16.26-1.43-1.22-3.02-2.48-4.57-3.68h0Zm-1417.8,240.95l-61.18-39.86c2.41-6.87,5.4-12.76,9.4-18.73,13.18-19.42,35.51-25.6,53.95-11.79,9.73,7.22,13.92,15.68,14.37,26.06.34,9.96-3.22,24.11-13.28,39.4-.99,1.66-2.13,3.37-3.27,4.92h0Zm-63.71,361.18l-71.59-14.03c0-5.38.35-8.87,1.37-13.8,6.93-32.7,28.35-43.58,47.42-38.36,22,5.9,33.5,25.2,28.01,50.75-1.22,5.31-2.97,10.48-5.21,15.45Zm1647.2,791.92l-57.68-44.9c2.23-5.84,4.99-10.88,8.53-15.69,11.85-15.75,32.29-20.69,51.32-7.68,10.05,6.87,14.54,14.89,15.33,25.14.77,9.69-2.92,24.01-13.96,38.38-1.22,1.61-2.36,3.16-3.55,4.76Zm-944.48,388.9c24.44-22.7,47.7-46.63,69.71-71.7l-9.34,80.58c-20.2-2.42-40.33-5.38-60.37-8.88ZM177.1,943.6l-65.12-12.71c-.74-6.66-.35-13.4,1.14-19.93,5.05-24.01,25.84-38.49,45.59-33.16,19.48,5.05,28.7,19.99,21.93,51.78-1.08,5.05-2.28,9.57-3.54,14.03h0Zm979.11,1267.21c-12.07-.58-36.3-6.24-34.59-81.85.8-40.56,10.31-61.28,12.14-64.67,6.25-10.82,13.28-14.09,20.22-14.15,7.9,0,30.12,4.02,34.47,80.93,1.62,30.06-3.59,52.01-6.36,58.6-6.99,16.26-17.3,20.84-25.89,21.14h0Zm968.43-915.37c-19.07-12.43-38.44-24.38-58.09-35.86,21.58-6.76,43.19-14.2,64.72-22.17-1.71,19.36-3.89,38.78-6.63,58.03ZM233.81,1568.71c22.85.17,45.65-.29,68.22-1.32-14.62,17.5-28.73,35.41-42.32,53.72-9.14-17.21-17.78-34.68-25.9-52.4Zm16.43-775.79c-16.18-16.18-31.88-32.83-47.08-49.93,22.97-1.27,45.82-2.01,68.56-2.08-7.6,17.15-14.77,34.49-21.48,52.01Zm670.69,1293.89c-1.04,4.29-2.46,8.75-3.96,12.94-8.02,7.15-21.65,10.01-31.66,7.31-20.96-5.55-23.02-35.16-15.52-59.91,8.25-26.98,23.31-31.44,33.84-28.57,9.86,2.68,14.21,9.97,17.3,18.72,3.03,9.07,5.27,26.42,0,49.51h0Z"/>
  <path class="cls-1" d="m2120.58,1048.8c-13.95.01-25.26,11.32-25.28,25.28,0,13.93,11.35,25.28,25.28,25.28s25.25-11.35,25.25-25.28c0-13.95-11.3-25.26-25.25-25.28Zm-1940.42,0c-13.95.01-25.26,11.33-25.27,25.28,0,13.93,11.35,25.28,25.27,25.28s25.27-11.35,25.27-25.28c0-13.95-11.31-25.26-25.27-25.28Zm488.3,929.35c-13.93,0-25.27,11.34-25.27,25.27s11.35,25.28,25.27,25.28,25.28-11.35,25.28-25.28-11.35-25.27-25.28-25.27Zm686.2,98.13c-13.95.01-25.26,11.32-25.28,25.27,0,13.94,11.35,25.28,25.28,25.28,13.96-.55,24.83-12.31,24.28-26.26-.52-13.19-11.09-23.76-24.28-24.28Z"/>
</svg>