<?xml version="1.0" encoding="UTF-8"?>
<svg id="Layer_1" data-name="Layer 1" xmlns="http://www.w3.org/2000/svg" viewBox="0 0 2279.4 409.08">
  <defs>
    <style>
      .cls-1 {
        fill: #a0a8b0;
        fill-rule: evenodd;
        stroke-width: 0px;
      }
    </style>
  </defs>
  <path class="cls-1" d="m275.27,0c.83,4.23,0,7.59,0,11.79l10.09,4.22c-3.37,1.69-7.57,1.69-10.93,3.39,0,4.19,0,7.56-.84,10.93-1.7-2.53-4.22-5.9-5.9-9.26-4.2.84-7.56,2.52-10.93,2.52l6.73-8.4-5.9-10.09c3.37.83,7.57,1.66,10.95,3.36,2.54-2.54,4.23-5.91,6.74-8.44h0Z"/>
  <path class="cls-1" d="m32.84,18.51c4.22,7.59,3.36,17.7,5.9,24.42l1.67,6.74c7.57,10.93,15.14,21.88,21.89,33.67h-30.31c-4.22-6.73-6.73-14.32-9.26-21.88-5.06-9.27-14.31-16.86-21.05-24.42-.83-2.17-.83-4.56,0-6.73,6.74-7.57,15.99-11.8,25.24-13.48,1.7.01,4.23.01,5.91,1.67h0Z"/>
  <path class="cls-1" d="m241.59,32c3.37-.83,7.59-.83,10.09-.83l-6.73,7.56c.84,4.22,4.22,6.74,4.22,10.96-3.19-1.5-6.28-3.19-9.26-5.07-3.37,2.53-5.06,5.07-8.42,7.59,0-3.37.84-6.74,1.69-10.95-3.37-2.53-7.59-3.36-10.1-5.89l10.1-1.69c1.67-3.36,1.67-7.57,2.52-10.95,1.69,2.53,3.39,6.73,5.9,9.26h0Zm31.17,10.1c3.36.84,7.56,0,10.93.84l-8.4,6.74c0,4.22,2.52,7.57,2.52,10.93l-9.26-6.72c-2.52,2.52-5.89,4.2-8.42,6.72l-.84-.83,3.37-10.09-8.42-7.57h10.95c1.69-3.37,2.52-6.73,4.2-10.1l3.37,10.08h0Zm-25.27,23.57c3.36,0,7.59-.84,10.95-.84l-7.59,8.42,5.06,10.1c-3.38-1.67-6.74-3.37-10.1-5.07-3.37,2.54-5.89,5.07-9.26,7.57l2.53-10.93c-3.36-2.52-6.73-4.2-10.1-5.9l10.1-1.67c2.52-3.37,1.67-7.57,3.36-10.95,2.53,2.53,2.53,6.74,5.06,9.27h0Zm-31.15-5.9c0,4.22-.83,7.57-.83,10.95l10.1,4.2v.84c-3.37.84-7.57.84-10.95,3.36,0,4.22,0,6.73-.83,10.96-2.53-3.37-3.37-6.74-6.74-9.26l-10.1,2.52v-.84l6.74-8.4c-1.69-3.37-4.22-7.59-5.06-10.1l10.09,4.22.84-.84c2.53-2.53,4.22-5.06,6.73-7.59h0Z"/>
  <path class="cls-1" d="m44.63,333.36v-.86c3.37-8.4,5.06-17.65,13.48-22.72,4.2-.83,7.56-2.5,10.92-3.35-6.73-2.56-14.29-6.76-20.19-12.65-17.68-23.58-18.53-53.88-20.22-82.5,0-23.55.86-49.66.86-74.07-1.7-18.52-10.09-38.73-29.47-45.45h301.35v.83l-.84.84c-18.52,8.43-27.77,28.64-28.64,47.99-.82,37.88,2.54,79.13-4.2,115.33.84,0-.83.83-.83.83-4.22,21.02-13.49,42.94-36.2,49.67,10.09,1.67,19.36,8.4,21.04,19.35l2.53,6.74H44.63Z"/>
  <path class="cls-1" d="m241.59,107.75c3.37,0,5.9-1.69,9.26-.84l-6.73,6.74c1.69,3.37,3.37,5.88,5.06,9.25-3.37-.83-5.91-3.37-9.26-4.2l-6.73,6.73.83-10.09c-3.36-.83-5.89-2.53-8.42-4.2,3.36-1.7,10.1.83,10.1-5.06l.83-6.73,5.06,8.4h0Zm-31.14,25.24l-9.25,1.69c-1.69,2.53-1.69,5.9-2.53,9.26h-.83c-.84-2.52-1.69-6.73-4.23-8.42-1.67.83-3.36,0-5.05.83-1.67-.83-3.36.86-4.2,0,2.52-3.36,5.05-4.2,7.56-6.73-.83-3.37-2.52-5.88-3.37-9.26l7.57,4.22,7.57-5.9-.84,9.26,7.59,5.06h0Zm17.68,27.78c2.53,1.69,6.74,1.69,9.25,4.22-2.5,1.7-5.88.84-9.25,2.53,0,3.37-.84,6.73-.84,10.1l-5.06-7.57c-3.37-.83-6.73.86-10.09,1.69,1.69-3.36,4.2-5.05,5.89-7.57l-5.05-8.42c3.36,0,6.73,1.67,10.1,2.54l5.89-6.76c0,2.53,0,5.89-.84,9.25h0Zm-33.67,7.59l7.59.84v.83l-7.59,5.06c0,3.37,1.69,5.9,1.69,9.26l-7.57-5.9c-3.36.84-5.05,3.36-8.42,4.2.83-2.52,1.7-5.9,3.39-8.42-1.69-2.52-5.06-5.03-6.74-6.73,2.53-.83,5.9,0,9.27,0l4.2-8.42c1.66,2.53-.03,8.43,4.19,9.27h0Zm-21.88,20.19c3.37.84,6.73-.83,10.09,0l-6.73,6.74,4.19,9.27c-3.36-.86-5.89-3.4-8.4-4.23-3.36.83-5.06,4.23-7.57,5.9l.84-9.26c-1.69-2.53-5.89-3.37-8.42-5.06,3.36-.82,6.74-.82,9.26-1.67,1.69-3.37,1.69-6.74,2.53-9.26,2.53,1.67,2.53,5.89,4.22,7.56h0Zm38.71,14.31c3.37,1.71,6.73.84,10.1,2.54-3.37.83-5.9,2.5-9.26,4.18,0,3.37,1.69,6.76.84,10.13l-6.73-6.76c-3.37.86-5.89,3.4-8.4,4.23l4.2-9.27c-2.53-1.67-4.2-5.06-6.74-6.74,2.53-.83,7.57,1.69,10.09,0l4.22-7.56,1.69,9.26h0Zm-49.66,10.09l9.26-3.37c-.84,2.53-3.37,5.07-4.22,8.43l6.74,7.57c-4.22,0-9.26-4.2-10.96,1.7-1.67,1.7-2.53,4.2-3.35,5.05-.84-2.5-.84-5.9-1.7-8.4-2.86-1.52-6.02-2.39-9.26-2.53v-.83l7.59-4.2-.84-9.27c2.52,1.69,5.03,4.19,6.73,5.86h0Zm29.47,5.9c.83,3.37,1.67,6.74,3.36,9.27h9.27c-1.69,2.53-5.89,4.2-7.57,6.74l2.53,9.25c-2.53-.83-5.07-5.05-7.57-5.88-3.12,1.46-5.97,3.45-8.42,5.88l2.53-10.1-7.57-5.88c3.35-.83,7.57.86,10.1-1.7l2.52-7.57h.83s0-.01,0-.01Zm-46.3,17.69c2.53,1.7,5.89,2.53,8.42,4.2v.83l-8.42,1.7c-1.7,3.37-.84,7.57-1.7,10.1-2.5-2.53-3.36-5.9-5.88-8.43-3.06.96-6.15,1.81-9.27,2.53l5.9-7.57c-.84-3.37-2.52-5.9-4.2-8.4,3.36.83,5.9,1.67,9.25,2.5,2.54-1.67,3.36-4.18,6.74-6.72l-.84,9.26h0Zm-27.78,10.1c4.23,0,6.76-2.53,10.1-1.7l-5.89,7.57,5.05,8.43h-.84l-8.42-3.37c-2.52,1.67-4.19,5.05-6.73,6.74,0-2.53,0-6.74.84-9.27-2.53-2.53-6.76-2.53-9.26-4.2,3.37-.83,5.9-2.53,9.26-2.53.83-3.37.83-6.74.83-10.08l5.06,8.4h0Z"/>
  <path class="cls-1" d="m162.46,248.32c2.53.86,6.74.86,9.27.86-1.69,1.67-4.22,3.35-6.74,5.88l2.53,9.27-8.4-5.07c-2.54.86-5.07,4.2-7.57,5.07l.83-3.37,1.67-5.9-7.57-5.88c1.69-1.7,5.07,0,7.57-.86h1.7c1.67-2.5,2.52-5.88,3.37-9.25l3.35,9.25h0Zm34.53,3.37l5.89-2.5-4.2,8.4c3.37,2.53,4.2,5.05,6.73,7.57-3.36,0-5.89-1.7-10.09-.83l-4.2,7.55c-.84-2.5,0-6.72-2.53-9.25-3.36-.83-5.89,0-9.25-1.67,3.36-1.7,6.74-2.53,9.25-5.05l-1.67-9.27c4.19,1.67,5.86,8.4,10.08,5.05h0Zm-50.52,7.57c-.83,3.37-4.22,5.07-5.03,8.43,1.66,2.5,4.2,5.05,5.03,7.55l-9.25-2.5c-1.69,2.5-4.22,5.07-5.9,7.57v-10.1l-9.26-2.5c2.53-1.7,5.89-2.53,9.26-3.37v-10.1l5.9,7.57,9.25-2.54Z"/>
  <path class="cls-1" d="m176.78,269.37l9.27,1.7v.8c-2.53,1.7-5.91,2.53-8.42,5.1.83,2.5.83,6.72,1.69,9.25-2.53-1.7-5.06-5.05-7.57-6.74-2.97,1.06-5.79,2.47-8.42,4.2.84-3.37,2.53-5.88,3.36-9.27-1.67-2.53-3.36-5.05-5.89-6.72,3.37-.86,8.42,2.5,10.95-.86l3.36-6.72c.84,3.36.84,6.73,1.67,9.26h0Zm-67.34,0c3.39.83,5.9,0,10.1,0-2.53,2.5-5.9,4.2-8.4,6.74,1.69,2.5,2.52,5.9,2.52,9.25l-7.56-5.88c-2.54,1.7-5.07,4.2-7.59,5.05,0-2.5,1.67-5.9,2.52-8.4-1.67-2.53-5.88-4.23-7.56-6.74,4.22-.83,10.09,2.5,10.93-3.37l1.7-5.88c1.67,2.49,2.5,5.86,3.35,9.23h0Z"/>
  <path class="cls-1" d="m1128.37,88.09c-7.81,67.05-72.46,117.97-123.38,155.09-3.61,8.38,4.8,14.38,10.79,17.35,72.45,6,88.62-74.25,147.32-99.4,39.54-15.56,90.44-23.36,127.54,2.41-3.59,12.55-25.14,12.55-19.75,27.52v6.02c-45.52,85.03-103.02,210.2-219.2,211.99-9.56-1.8-11.36-11.98-10.78-21.58,3.01-23.94,23.36-41.32,44.33-52.09,5.17-1.93,10.64-2.95,16.16-3.01,3,13.77-14.36,25.15-1.19,35.37,32.94-12.59,46.13-49.12,56.28-77.87-23.93,7.2-58.07,32.93-83.23,7.2-2.39-5.98-3-17.96-11.37-16.77-23.97,19.16-51.49,37.74-84.46,29.95-12.58-4.79-22.15-17.38-31.72-25.76-31.15,19.78-73.66,38.96-110.79,19.78-10.78-7.81-8.38-23.97-10.17-35.93h-3.02c-28.13,24.53-62.25,47.87-101.19,33.51-17.98-22.75-.61-52.11,7.78-74.28,50.89-60.48,134.74-97.62,208.39-68.86-.58,23.37-26.33,37.11-44.3,43.12-10.17,13.8-20.96,30.54-14.98,49.12,17.38,19.73,44.33,4.76,62.9-3.01,4.18-8.96,6.58-19.75,9.57-29.34,25.17-60.48,79.05-128.78,146.73-142.55,12.57-.01,25.15,1.18,31.75,12h0Zm80.23,109.57c-1.8,8.99-10.76,14.41-14.97,22.15-17.35,19.18-39.52,31.74-65.26,31.74-5.99-6-5.99-14.99-4.22-21.56,8.99-22.17,34.75-34.76,56.91-38.95,8.98-.57,19.74.01,27.53,6.61h0Zm-203.6,10.18c2.98-31.15,26.95-62.89,56.29-79.66-6.6,29.97-28.14,59.31-56.29,79.66Zm-682.14-71.26c0,.6,0,2.39-1.21,2.39h-1.18v-2.39h2.39Zm1441.52,49.7c-4.79,10.8-14.38,17.96-23.36,25.78-9.57,7.76-21.56,11.93-32.93,15.52.58-21.53,28.12-36.54,46.13-45.48,3.54,0,6.54,1.79,10.16,4.18h0Zm-908.49,13.77c-18.57,22.77-44.33,38.35-70.09,46.72-7.17,1.19-16.19,1.19-20.36-4.2,0-7.81-1.79-19.16,4.8-25.73,22.76-21.59,57.47-31.75,85.65-16.78Zm-95.25-123.98c30.57,68.87-27.53,130.57-74.25,179.66-45.52,41.35-100.61,67.08-163.5,55.71-12.58-3.57-21.57-13.77-32.36-20.95-32.32,17.38-74.85,34.76-111.38,13.77-14.97-11.4-20.34-28.75-22.74-46.72-1.21-44.33,29.32-77.27,53.89-111.99-40.14,2.39-83.27-14.97-118.58,7.17.6-21.56,3.01-46.11,24.55-58.69,55.69-31.14,116.17,11.98,174.27-9.58v2.97c-38.91,47.94-82.03,98.83-68.27,163.52,4.2,7.78,10.79,16.13,20.96,19.73,16.77.61,31.14-3.59,41.92-16.13,0-67.69,38.34-128.78,98.21-165.31,16.2-7.78,35.36-14.98,55.11-8.39,8.98,8.39,11.96,19.17,10.18,31.75-16.76,50.91-50.89,95.21-93.42,134.76,3.59,10.76,13.77,21.56,24.56,23.94,64.08,7.81,101.22-61.07,123.37-109.01,10.19-21.54,1.8-49.09-15.56-65.86,16.77-19.74,48.49-46.06,73.05-20.34h0Zm631.21,56.29c.64,8.99-1.78,17.38-7.15,23.96,25.71,3.02,51.5-22.15,74.25-3.58l-1.83,10.79c-23.94,32.32-64.64,51.5-62.27,92.81,14.38,19.18,38.91,6.59,56.29,3.59,14.99-55.71,71.89-98.82,125.77-108.39,20.36-1.8,47.31-4.2,58.09,16.16,3.59,20.97-9.57,40.76-26.34,55.12-23.97,18.55-52.11,28.73-77.84,44.28,13.73,12.59,34.12,6.61,51.5,5.4l48.51-14.94c29.34-63.5,92.81-109.02,161.69-111.4,8.99,1.79,17.96,6.58,23.38,16.15,2.97,29.36-16.8,52.72-40.15,67.69-22.75,14.97-48.51,21.56-71.26,37.11,12.57,10.21,31.71-.58,45.5-4.76,64.69-23.94,116.78-73.06,174.88-113.81,7.78,3.01,16.77,4.2,20.95,12-2.39,21.57-25.73,36.54-29.92,56.29,36.52-21.59,66.44-52.1,104.19-68.88,8.38-2.39,16.8,4.19,22.75,8.99,4.2,14.36-14.36,20.95-20.36,29.34-17.35,17.38-37.11,37.13-38.91,61.68,5.4,12.57,20.95,7.78,31.13,7.78,56.9-28.14,103.63-77.23,152.14-123.37,6.56-3.59,15.55-5.4,25.14-3.59,15.58,7.79-1.78,19.75-1.78,29.96-5.98,29.95-1.22,64.1-7.81,92.82,27.53,17.38,70.06,13.77,97.01-.58-2.41,24.55-21.56,52.68-47.31,61.07-52.11,6.59-106.6-13.18-156.3,2.39-7.2,0-15.55,0-19.75-8.37-1.22-6.61.58-14.97,6.56-19.78,13.2-17.94,37.16-16.77,55.73-26.34,1.17-14.97,9.57-29.95.58-43.11-53.9,37.74-102.99,93.42-170.07,100.01-13.2-1.8-26.37-6.59-32.35-19.75-.58-14.38,2.98-28.73,7.78-41.35-2.39-4.76-5.98,0-8.37.61-34.15,26.34-67.69,60.49-113.21,58.09-5.98-4.18-1.19-11.37,0-16.77,7.78-13.76,19.75-28.14,24.55-41.92-52.71,32.35-109.58,73.69-175.44,56.31l-23.97-20.95c-49.12,17.35-104.8,38.91-158.11,19.16-1.78-6.59-7.2-12.59-12.59-15.58-18.55-2.39-32.32,10.79-49.09,15.58-22.14,1.19-49.7,12.57-68.86-4.18-9.6-11.4-10.82-29.97-6.61-44.33,7.81-18.57,20.97-32.35,34.12-49.12-32.9-4.79-43.09,32.35-64.64,49.12-19.18,10.76-34.76,28.14-56.31,30.54,21.56-45.52,83.85-72.48,88.05-125.17,13.15-18.59,31.1-37.15,54.49-38.94l3.58,4.15h0Zm-799.5,4.81c-4.79,27.55-20.96,52.11-43.72,70.66,0-28.16,11.39-57.48,37.74-75.46,4.18-1.78,4.79,2.4,5.98,4.8Zm984.57,50.31c-7.17,25.14-33.54,33.51-53.88,43.1,1.78-22.11,25.73-37.11,44.89-44.3l8.99,1.21Z"/>
</svg>